<svg xmlns="http://www.w3.org/2000/svg" viewBox="0 0 1024 1024" role="img" aria-label="Prem">
  <defs>
    <linearGradient id="prem-tile" x1="0" y1="0" x2="0" y2="1">
      <stop offset="0" stop-color="rgb(110, 108, 245)"/>
      <stop offset="1" stop-color="rgb(72, 70, 200)"/>
    </linearGradient>
  </defs>
  <rect x="100" y="100" width="824" height="824" rx="185" fill="url(#prem-tile)"/>
  <g stroke="#fff" stroke-width="30" stroke-linecap="round">
    <line x1="404" y1="401" x2="546.9" y2="483.5"/>
    <line x1="546.9" y1="483.5" x2="546.9" y2="648.5"/>
    <line x1="546.9" y1="648.5" x2="404" y2="731"/>
    <line x1="404" y1="731" x2="261.1" y2="648.5"/>
    <line x1="261.1" y1="648.5" x2="261.1" y2="483.5"/>
    <line x1="261.1" y1="483.5" x2="404" y2="401"/>
    <line x1="546.9" y1="483.5" x2="640" y2="384"/>
    <line x1="640" y1="384" x2="721.4" y2="292.8"/>
    <line x1="640" y1="384" x2="740" y2="466.8"/>
    <line x1="411.3" y1="467.6" x2="485.6" y2="510.5"/>
    <line x1="485.6" y1="621.5" x2="411.3" y2="664.4"/>
    <line x1="315.1" y1="608.9" x2="315.1" y2="523.1"/>
  </g>
  <g fill="#fff">
    <circle cx="404" cy="401" r="44"/>
    <circle cx="546.9" cy="483.5" r="44"/>
    <circle cx="546.9" cy="648.5" r="44"/>
    <circle cx="404" cy="731" r="44"/>
    <circle cx="261.1" cy="648.5" r="44"/>
    <circle cx="261.1" cy="483.5" r="44"/>
    <circle cx="640" cy="384" r="44"/>
  </g>
  <g fill="#fff" fill-opacity="0.3" stroke="#fff" stroke-width="18">
    <circle cx="756" cy="254" r="52"/>
    <circle cx="780" cy="500" r="52"/>
  </g>
</svg>
